<svg id="Component_187_95" data-name="Component 187 – 95" xmlns="http://www.w3.org/2000/svg" width="22.87" height="17.152" viewBox="0 0 22.87 17.152">
  <g id="Group_8213" data-name="Group 8213" transform="translate(43.871 -10)">
    <g id="Group_8212" data-name="Group 8212" transform="translate(-43.871 10)">
      <g id="vuesax_broken_arrow-up" data-name="vuesax/broken/arrow-up" transform="translate(0.001 17.152) rotate(-90)">
        <g id="arrow-up">
          <path id="Vector" d="M8.526,2.285,6.661.413a1.419,1.419,0,0,0-2,0L0,5.073" transform="translate(2.916 5.684)" fill="none" stroke="#8c9cac" stroke-linecap="round" stroke-linejoin="round" stroke-width="1.5"/>
          <path id="Vector-2" data-name="Vector" d="M.743.743,0,0" transform="translate(13.493 10.013)" fill="none" stroke="#8c9cac" stroke-linecap="round" stroke-linejoin="round" stroke-width="1.5"/>
          <path id="Vector-3" data-name="Vector" d="M0,0H17.152V17.153H0Z" fill="none" opacity="0"/>
        </g>
      </g>
      <g id="vuesax_broken_arrow-up-2" data-name="vuesax/broken/arrow-up" transform="translate(5.718 17.152) rotate(-90)">
        <g id="arrow-up-2" data-name="arrow-up">
          <path id="Vector-4" data-name="Vector" d="M8.526,2.285,6.661.413a1.419,1.419,0,0,0-2,0L0,5.073" transform="translate(2.916 5.684)" fill="none" stroke="#8c9cac" stroke-linecap="round" stroke-linejoin="round" stroke-width="1.5"/>
          <path id="Vector-5" data-name="Vector" d="M.743.743,0,0" transform="translate(13.493 10.013)" fill="none" stroke="#8c9cac" stroke-linecap="round" stroke-linejoin="round" stroke-width="1.5"/>
          <path id="Vector-6" data-name="Vector" d="M0,0H17.152V17.153H0Z" fill="none" opacity="0"/>
        </g>
      </g>
    </g>
  </g>
</svg>
